<?xml version="1.0" standalone="no"?>
<!DOCTYPE svg PUBLIC "-//W3C//DTD SVG 20010904//EN"
 "http://www.w3.org/TR/2001/REC-SVG-20010904/DTD/svg10.dtd">
<svg version="1.0" xmlns="http://www.w3.org/2000/svg"
 width="1800.000000pt" height="1800.000000pt" viewBox="0 0 1800.000000 1800.000000"
 preserveAspectRatio="xMidYMid meet">
<metadata>
Created by potrace 1.11, written by Peter Selinger 2001-2013
</metadata>
<g transform="translate(0.000000,1800.000000) scale(0.100000,-0.100000)"
fill="#000000" stroke="none">
<path d="M8916 17298 c-9 -5 -23 -7 -30 -5 -23 9 -72 -23 -94 -61 -11 -20 -23
-59 -27 -85 -4 -27 -13 -51 -20 -53 -13 -5 -19 -88 -30 -394 -6 -160 -22 -539
-30 -695 -3 -55 -8 -161 -11 -235 -3 -74 -10 -151 -14 -170 -9 -38 -18 -214
-25 -525 -3 -110 -9 -267 -14 -350 -6 -82 -13 -211 -16 -285 -7 -174 -10 -208
-23 -365 -6 -71 -14 -240 -18 -375 -10 -363 -11 -390 -22 -580 -6 -96 -14
-281 -18 -410 -10 -366 -8 -351 -39 -377 -20 -18 -34 -22 -63 -18 -20 3 -150
7 -288 10 -224 4 -255 6 -298 25 -47 20 -62 20 -530 17 -438 -3 -484 -5 -518
-21 -21 -10 -38 -26 -39 -35 0 -9 0 -65 0 -125 0 -60 -5 -119 -9 -132 -6 -15
-5 -59 3 -116 7 -51 12 -149 10 -218 -1 -69 -5 -222 -7 -340 -3 -118 -6 -237
-6 -265 -1 -27 -1 -50 0 -50 1 0 4 -22 6 -50 1 -27 5 -59 7 -70 3 -11 8 -49
12 -85 4 -36 11 -70 16 -76 5 -6 9 -27 8 -45 -1 -19 1 -48 4 -66 5 -31 4 -33
-31 -39 -35 -6 -95 -36 -117 -59 -20 -20 -44 -91 -49 -145 -3 -30 -9 -100 -12
-155 -4 -57 -12 -104 -19 -112 -12 -11 -17 -36 -30 -133 -3 -19 -7 -46 -10
-60 -3 -14 -8 -48 -11 -75 -5 -43 -3 -53 15 -69 21 -19 28 -46 13 -46 -4 0 -8
-17 -8 -37 0 -41 -13 -171 -20 -206 -10 -52 -6 -128 8 -149 8 -13 13 -32 11
-43 -9 -46 -12 -87 -17 -225 -3 -80 -8 -192 -11 -250 -2 -58 -7 -168 -10 -245
-3 -77 -8 -174 -10 -215 -3 -41 -8 -149 -10 -240 -3 -91 -8 -190 -10 -220 -3
-30 -7 -98 -10 -150 -2 -52 -6 -153 -9 -225 -4 -71 -9 -206 -11 -300 -3 -93
-9 -172 -13 -175 -4 -3 -7 -99 -7 -215 0 -194 -8 -508 -20 -750 -15 -316 -28
-573 -34 -662 -1 -6 -7 -18 -13 -25 -7 -7 -14 -19 -16 -26 -1 -8 -11 -26 -22
-40 -23 -32 -33 -141 -15 -166 7 -9 14 -14 16 -12 5 5 11 -190 12 -369 0 -121
-4 -217 -28 -565 -6 -88 -17 -246 -20 -275 -21 -220 -33 -581 -40 -1165 -9
-737 -14 -901 -31 -1000 -20 -119 -24 -282 -6 -288 6 -2 12 -10 12 -17 0 -7
27 -46 59 -86 33 -40 70 -93 83 -118 21 -41 186 -221 203 -221 4 0 38 -20 76
-45 37 -24 73 -46 80 -47 16 -4 25 -10 69 -48 22 -19 45 -30 66 -30 17 0 34
-3 38 -7 4 -5 11 -8 14 -8 36 -3 52 -19 52 -50 0 -18 3 -41 6 -49 6 -16 99
-66 122 -66 7 0 12 -4 12 -9 0 -5 21 -11 48 -14 55 -5 84 -12 109 -25 10 -6
44 -13 76 -17 31 -4 60 -11 63 -16 3 -5 10 -7 15 -3 5 3 24 1 42 -5 33 -10 68
-17 147 -30 25 -4 50 -10 56 -13 6 -4 37 -9 70 -12 32 -3 70 -8 84 -10 14 -3
54 -7 90 -11 36 -3 79 -8 95 -10 37 -6 231 -16 391 -20 139 -3 167 -13 211
-75 23 -32 34 -40 63 -41 19 -1 53 -2 75 -4 147 -11 583 -3 607 11 11 7 178
16 328 19 74 1 137 3 140 4 10 5 46 10 95 16 28 2 59 7 70 9 11 2 40 7 65 11
25 4 54 9 65 12 11 2 43 6 70 9 28 3 61 10 75 15 14 5 61 18 105 29 103 26
110 28 110 30 0 1 8 3 18 5 31 6 171 56 199 71 14 7 31 14 38 14 7 0 25 9 40
20 16 11 50 23 77 25 26 3 62 9 78 14 17 5 47 12 68 16 21 3 40 12 43 20 3 8
20 19 38 25 19 6 38 21 44 35 7 14 18 25 26 25 9 0 20 8 25 18 6 10 30 39 55
65 26 25 46 49 46 52 0 4 16 22 35 41 19 18 35 40 35 49 0 8 3 15 8 15 9 0 45
65 42 76 -1 4 2 10 7 13 10 7 34 97 39 150 17 156 19 213 11 291 -4 36 -9 103
-12 150 -3 82 -9 122 -19 138 -2 4 -7 54 -10 112 -4 58 -9 137 -12 175 -3 39
-7 95 -9 125 -2 30 -6 82 -9 115 -3 33 -8 116 -11 184 -3 68 -7 143 -10 165
-2 23 -7 93 -10 156 -3 63 -8 142 -10 175 -2 33 -7 101 -10 150 -3 50 -7 126
-10 169 -3 44 -7 116 -10 160 -3 45 -7 117 -10 161 -3 44 -8 127 -11 185 -2
58 -7 143 -9 190 -3 47 -7 117 -10 155 -4 39 -8 97 -10 130 -2 33 -6 83 -9
110 -3 28 -8 77 -12 110 -3 33 -8 74 -10 90 -2 17 -7 57 -10 90 -3 33 -6 62
-7 65 0 3 5 19 12 35 18 42 16 306 -3 391 -2 12 -7 38 -10 59 -4 20 -9 42 -13
48 -4 6 -8 34 -9 62 -10 229 -20 375 -29 427 -2 9 -6 53 -10 98 -4 45 -9 92
-11 103 -3 12 -7 63 -9 112 -3 50 -7 124 -10 165 -2 41 -7 134 -11 205 -3 72
-7 153 -9 180 -2 28 -6 118 -9 200 -3 83 -8 179 -11 215 -3 36 -8 106 -11 155
-6 99 -10 140 -19 260 -11 142 -15 198 -20 295 -3 52 -7 106 -9 120 -3 14 -7
70 -11 125 -6 104 -13 181 -20 250 -7 67 -15 157 -19 220 -3 33 -7 87 -10 120
-6 60 -12 130 -22 235 -2 30 -7 75 -10 100 -21 187 -21 202 -11 263 2 10 -1
46 -6 80 -4 34 -10 104 -11 155 -2 69 -7 97 -20 110 -20 23 -20 36 -1 52 9 7
13 20 11 29 -5 16 -12 69 -22 171 -16 158 -16 160 -32 160 -8 0 -13 2 -10 6 3
3 2 20 -2 38 -4 19 -4 40 1 47 4 7 3 19 -2 26 -6 7 -8 17 -4 23 3 5 1 10 -6
10 -7 0 -10 3 -6 6 9 10 -35 54 -55 54 -10 0 -28 9 -40 20 -11 10 -33 22 -49
25 -32 7 -37 17 -33 65 2 19 5 82 7 139 3 65 9 106 17 111 7 4 14 34 16 66 2
33 6 79 9 104 15 130 16 213 3 222 -8 5 -9 11 -3 16 6 4 11 12 12 17 2 15 13
102 18 155 3 25 8 65 11 90 15 123 12 143 -21 148 -18 2 -23 84 -18 299 3 116
3 231 -1 255 -6 43 -14 50 -68 67 -4 1 -22 8 -40 15 -18 7 -73 14 -122 15 -49
2 -100 7 -113 12 -24 9 -342 5 -548 -6 -97 -6 -116 -4 -163 14 -69 27 -139 35
-299 34 -73 -1 -133 2 -133 5 0 4 -18 8 -41 9 -75 3 -73 -6 -54 348 3 61 8
155 10 210 12 292 16 373 21 515 3 85 7 182 9 215 2 33 6 132 9 220 4 88 9
192 11 230 2 39 7 124 10 190 3 66 8 147 10 180 8 89 16 200 20 285 13 261 16
319 20 355 3 22 7 87 10 145 2 58 7 150 10 205 3 55 8 177 11 270 9 287 23
509 32 512 4 2 6 36 6 75 -1 40 2 105 7 143 5 39 11 135 14 214 3 79 8 185 11
235 9 121 9 331 0 380 -6 35 -31 81 -62 113 -7 7 -34 24 -60 38 -43 23 -59 26
-145 24 -53 -1 -104 -6 -113 -11z"/>
</g>
</svg>
